<svg xmlns="http://www.w3.org/2000/svg" id="Layer_1" data-name="Layer 1" viewBox="0 0 1920 1920"><defs><style>      .cls-1 {        fill: #dfa84e;        stroke-width: 0px;      }    </style></defs><path class="cls-1" d="m1148.86,432.01v-39.09c0-169.23-137.19-306.42-306.42-306.42h-29.34c-169.23,0-306.42,137.19-306.42,306.42v296.28c0,59.14,37.41,111.8,93.25,131.27l398.41,138.91c32.5,11.33,54.19,42.09,53.94,76.51l-1.72,241.26c-.84,117.84-96.61,212.93-214.46,212.93h-15.29c-118.45,0-214.47-96.02-214.47-214.47v-30.76h-99.66v26.1c0,177.33,143.75,321.08,321.08,321.08h0c177.33,0,321.08-143.75,321.08-321.08v-258.59c0-58.94-37.17-111.47-92.74-131.09l-393.11-138.77c-32.15-11.35-53.65-41.74-53.65-75.83v-260.76c0-121.42,98.43-219.84,219.84-219.84h0c121.42,0,219.84,98.43,219.84,219.84v26.09s99.81,0,99.81,0Z"></path><path class="cls-1" d="m1313.3,86.5h100v1274.09c0,305.52-173.05,450.87-388.49,471.27v1.64s0-99.99,0-99.99v-1.64c125.96-9.04,224.17-98.98,265.7-212.01,17.95-48.84,25.94-100.78,25.81-152.81l-3.02-1280.55Z"></path></svg>