<svg xmlns="http://www.w3.org/2000/svg" xmlns:xlink="http://www.w3.org/1999/xlink" id="Layer_1" x="0px" y="0px" viewBox="0 0 1920 1920" style="enable-background:new 0 0 1920 1920;" xml:space="preserve"><style type="text/css">	.st0{fill:#FFFFFF;}	.st1{fill:#3B3539;}</style><g>	<g>		<g>			<path class="st0" d="M88.9,1733c-13.3,0-23.9-4.1-31.9-12.4c-8-8.3-12-19.2-12-32.7v-7.3h23.2v7.3c0,6.6,1.9,11.9,5.6,15.9    c3.7,4,8.8,6,15.1,6c6.3,0,11.4-2,15.1-6c3.7-4,5.6-9.3,5.6-15.9v-15.4c0-3.7-0.1-6.7-0.4-8.8c-0.2-2.2-1-3.9-2.2-5.2    c-1.2-1.3-3.3-2.5-6.1-3.7c-2.8-1.2-6.9-2.6-12.1-4.2c-11-3.5-19.5-6.4-25.5-8.8c-6-2.4-10.3-5-12.9-7.7    c-2.6-2.7-4.2-6.3-4.7-10.7c-0.5-4.4-0.8-10.4-0.8-17.9v-18.1c0-13.6,4-24.5,12-32.8c8-8.3,18.6-12.4,31.9-12.4    c13.3,0,24,4.1,32,12.4c8,8.3,12,19.2,12,32.8v7.3h-23.2v-7.3c0-6.6-1.9-11.9-5.6-15.9c-3.7-4-8.8-6-15.1-6c-6.3,0-11.4,2-15.1,6    c-3.7,4-5.6,9.3-5.6,15.9v18.1c0,3.7,0.1,6.6,0.4,8.7c0.3,2.2,1,3.9,2.2,5.2c1.2,1.3,3.2,2.6,6.1,3.7c2.9,1.1,6.9,2.6,12,4.3    c11,3.5,19.5,6.4,25.5,8.8c6,2.4,10.3,4.9,12.9,7.6c2.6,2.7,4.2,6.3,4.7,10.7c0.5,4.4,0.8,10.4,0.8,18.1v15.4    c0,13.5-4,24.4-12,32.7C112.9,1728.9,102.2,1733,88.9,1733z"></path>			<path class="st0" d="M262.6,1546.1v159.8h46.4v23.2h-69.5v-183H262.6z"></path>			<path class="st0" d="M481.3,1546.1v23.2h-51.2v54.9h44.6v23.2h-44.6v58.6h51.2v23.2h-74.4v-183H481.3z"></path>			<path class="st0" d="M659.5,1546.1v23.2h-51.2v54.9h44.6v23.2h-44.6v58.6h51.2v23.2h-74.4v-183H659.5z"></path>			<path class="st0" d="M763.3,1729.1v-183h45.1c12.6,0,22.7,3.9,30.2,11.7c7.5,7.8,11.3,18.1,11.3,31v21.3    c0,12.8-3.8,23.1-11.3,30.9c-7.5,7.8-17.6,11.8-30.2,11.8h-22v76.2H763.3z M786.5,1629.7h22c5.6,0,10.1-1.8,13.4-5.4    c3.3-3.6,4.9-8.3,4.9-14.1v-21.3c0-5.9-1.6-10.6-4.9-14.2c-3.3-3.6-7.7-5.4-13.4-5.4h-22V1629.7z"></path>			<path class="st0" d="M977.1,1729.1v-90.3l-42.6-92.7h23.8l34.2,77.3h-7.6l33.8-77.3h23.8l-42.2,92.7v90.3H977.1z"></path>			<path class="st0" d="M1249.8,1730.7v-23.2h13.7c6.3,0,11.4-2,15.1-6c3.7-4,5.6-9.3,5.6-15.9v-139.4h23.2v139.4    c0,13.5-4,24.4-12,32.7c-8,8.3-18.6,12.4-32,12.4H1249.8z"></path>			<path class="st0" d="M1460.8,1733c-13.3,0-23.9-4.1-31.9-12.4c-8-8.3-12-19.2-12-32.7v-100.5c0-13.6,4-24.5,12-32.8    c8-8.3,18.6-12.4,31.9-12.4c13.3,0,24,4.1,32,12.4c8,8.3,12,19.2,12,32.8v100.5c0,13.5-4,24.4-12,32.7    C1484.8,1728.9,1474.1,1733,1460.8,1733z M1460.8,1709.8c6.3,0,11.4-2,15.1-6c3.7-4,5.6-9.3,5.6-15.9v-100.5    c0-6.6-1.9-11.9-5.6-15.9c-3.7-4-8.8-6-15.1-6c-6.3,0-11.4,2-15.1,6c-3.7,4-5.6,9.3-5.6,15.9v100.5c0,6.6,1.9,11.9,5.6,15.9    C1449.4,1707.8,1454.4,1709.8,1460.8,1709.8z"></path>			<path class="st0" d="M1690.1,1546.1v23.2h-51.2v54.9h44.6v23.2h-44.6v58.6h51.2v23.2h-74.4v-183H1690.1z"></path>			<path class="st0" d="M1831.1,1733c-13.3,0-23.9-4.1-31.9-12.4c-8-8.3-12-19.2-12-32.7v-7.3h23.2v7.3c0,6.6,1.9,11.9,5.6,15.9    c3.7,4,8.8,6,15.1,6s11.4-2,15.1-6c3.7-4,5.6-9.3,5.6-15.9v-15.4c0-3.7-0.1-6.7-0.4-8.8c-0.2-2.2-1-3.9-2.2-5.2    c-1.2-1.3-3.3-2.5-6.1-3.7c-2.8-1.2-6.9-2.6-12.1-4.2c-11-3.5-19.5-6.4-25.5-8.8c-6-2.4-10.3-5-12.9-7.7    c-2.6-2.7-4.2-6.3-4.7-10.7c-0.5-4.4-0.8-10.4-0.8-17.9v-18.1c0-13.6,4-24.5,12-32.8c8-8.3,18.6-12.4,31.9-12.4    c13.3,0,24,4.1,32,12.4c8,8.3,12,19.2,12,32.8v7.3h-23.2v-7.3c0-6.6-1.9-11.9-5.6-15.9c-3.7-4-8.8-6-15.1-6s-11.4,2-15.1,6    c-3.7,4-5.6,9.3-5.6,15.9v18.1c0,3.7,0.1,6.6,0.4,8.7c0.3,2.2,1,3.9,2.2,5.2c1.2,1.3,3.2,2.6,6.1,3.7c2.9,1.1,6.9,2.6,12,4.3    c11,3.5,19.5,6.4,25.5,8.8c6,2.4,10.3,4.9,12.9,7.6c2.6,2.7,4.2,6.3,4.7,10.7c0.5,4.4,0.8,10.4,0.8,18.1v15.4    c0,13.5-4,24.4-12,32.7C1855.1,1728.9,1844.5,1733,1831.1,1733z"></path>		</g>	</g>	<g>		<path class="st0" d="M1087.9,421.1v-26.5c0-114.6-92.9-207.6-207.6-207.6h-19.9c-114.6,0-207.6,92.9-207.6,207.6v200.7   c0,40.1,25.3,75.7,63.2,88.9L986,778.3c22,7.7,36.7,28.5,36.5,51.8l-1.2,163.4c-0.6,79.8-65.4,144.2-145.3,144.2h-10.4   c-80.2,0-145.3-65-145.3-145.3v-20.8h-67.5v17.7c0,120.1,97.4,217.5,217.5,217.5h0c120.1,0,217.5-97.4,217.5-217.5V814.2   c0-39.9-25.2-75.5-62.8-88.8l-266.3-94c-21.8-7.7-36.3-28.3-36.3-51.4V403.4c0-82.3,66.7-148.9,148.9-148.9h0   c82.3,0,148.9,66.7,148.9,148.9v17.7H1087.9z"></path>		<path class="st0" d="M1199.3,187h67.7v863.1c0,207-117.2,305.4-263.2,319.3l0,1.1v-67.7l0-1.1c85.3-6.1,151.9-67.1,180-143.6   c12.2-33.1,17.6-68.3,17.5-103.5L1199.3,187z"></path>	</g></g></svg>